<svg id="b" xmlns="http://www.w3.org/2000/svg" width="247.508" height="89.979" viewBox="0 0 247.508 89.979">
  <g id="c">
    <g id="Group_4" data-name="Group 4">
      <g id="Group_2" data-name="Group 2">
        <path id="Path_7" data-name="Path 7" d="M7.89,22.983V48.345a.569.569,0,0,1-.564.564H5.632a.569.569,0,0,1-.564-.564V22.983a.285.285,0,0,0-.282-.282H.564A.569.569,0,0,1,0,22.137V20.584a.569.569,0,0,1,.564-.564H4.772a.285.285,0,0,0,.282-.282V10.244a.569.569,0,0,1,.564-.564H7.312a.569.569,0,0,1,.564.564v9.493a.285.285,0,0,0,.282.282h4.182a.569.569,0,0,1,.564.564v1.552a.569.569,0,0,1-.564.564H8.159a.285.285,0,0,0-.282.282Z" transform="translate(0 2.738)" fill="#717171"/>
        <path id="Path_8" data-name="Path 8" d="M21.234,0h1.693a.569.569,0,0,1,.564.564V26.286a.279.279,0,0,0,.513.154A9.567,9.567,0,0,1,32.344,22.1a8.991,8.991,0,0,1,8.005,4.041c1.27,2.053,1.411,4.747,1.411,7.3V51.083a.569.569,0,0,1-.564.564H39.5a.569.569,0,0,1-.564-.564V33.444c0-1.988-.064-4.182-1.129-5.811-.641-1.065-2.194-2.835-5.67-2.835a7.609,7.609,0,0,0-7.081,4.041,15.8,15.8,0,0,0-1.565,7.8V51.1a.569.569,0,0,1-.564.564H21.234a.569.569,0,0,1-.564-.564V.564A.569.569,0,0,1,21.234,0Z" transform="translate(5.847)" fill="#717171"/>
        <path id="Path_9" data-name="Path 9" d="M49.428,32.688a.307.307,0,0,0-.3.3c.141,7.2,5.465,11.892,11.482,11.892A10.954,10.954,0,0,0,70.4,38.82a.563.563,0,0,1,.783-.231l1.424.834a.565.565,0,0,1,.218.757A13.9,13.9,0,0,1,60.41,47.569c-9.006,0-14.24-6.658-14.24-15.1,0-10.058,6.94-15.24,14.034-15.24,7.633,0,13.419,5.978,13.662,14.855a.586.586,0,0,1-.577.59H49.428Zm21.129-2.694a.284.284,0,0,0,.282-.334c-.834-5.58-5.029-9.737-10.661-9.737s-9.891,4.285-10.789,9.724a.291.291,0,0,0,.282.334H70.544Z" transform="translate(13.059 4.874)" fill="#717171"/>
        <path id="Path_10" data-name="Path 10" d="M113.717,11.13a.57.57,0,0,1-.86-.167,10.058,10.058,0,0,0-8.954-5.2,8.406,8.406,0,0,0-8.788,8.788c0,5.106,3.541,6.8,8.287,9.147,4.682,2.271,7.017,3.258,9.429,4.965a10.392,10.392,0,0,1,5.029,9.147c0,7.941-6.658,13.816-14.74,13.816a13.465,13.465,0,0,1-10.981-4.965,15.581,15.581,0,0,1-2.861-4.682.569.569,0,0,1,.282-.718l1.668-.8a.578.578,0,0,1,.77.282,16.182,16.182,0,0,0,2.348,3.977,11.357,11.357,0,0,0,8.852,4.041c6.376,0,11.4-4.682,11.4-10.917,0-2.553-.988-5.247-4.605-7.441-1.347-.783-4.105-2.194-8.005-4.105-4.682-2.271-7.017-3.541-8.646-6.235a10.138,10.138,0,0,1-1.488-5.388c0-5.452,3.682-11.764,12.123-11.764a12.658,12.658,0,0,1,11.238,6.312.588.588,0,0,1-.128.731l-1.373,1.155Z" transform="translate(25.242 0.826)" fill="#717171"/>
        <path id="Path_11" data-name="Path 11" d="M127.887,3.994V50.126a.569.569,0,0,1-.564.564h-1.988a.569.569,0,0,1-.564-.564V3.994a.569.569,0,0,1,.564-.564h1.988A.569.569,0,0,1,127.887,3.994Z" transform="translate(35.292 0.97)" fill="#717171"/>
        <path id="Path_12" data-name="Path 12" d="M146.887,3.994V47.573a.285.285,0,0,0,.282.282H159.5a.569.569,0,0,1,.564.564v1.693a.569.569,0,0,1-.564.564H144.052a.285.285,0,0,1-.282-.282V3.994a.569.569,0,0,1,.564-.564h1.988a.569.569,0,0,1,.564.564Z" transform="translate(40.666 0.97)" fill="#717171"/>
        <path id="Path_13" data-name="Path 13" d="M172.752,25.19l21.667-21.6a.586.586,0,0,1,.4-.167H198a.286.286,0,0,1,.205.487L176.01,25.831a.271.271,0,0,0,0,.4l23.566,23.977a.286.286,0,0,1-.205.487h-3.335a.563.563,0,0,1-.4-.167L173.753,28.359a.271.271,0,0,0-.4,0l-.9.847a.553.553,0,0,0-.18.411V50.129a.569.569,0,0,1-.564.564h-1.988a.569.569,0,0,1-.564-.564V4a.569.569,0,0,1,.564-.564h1.988a.569.569,0,0,1,.564.564V25a.286.286,0,0,0,.487.205Z" transform="translate(47.848 0.967)" fill="#717171"/>
      </g>
      <g id="Group_3" data-name="Group 3" transform="translate(43.706 69.646)">
        <path id="Path_14" data-name="Path 14" d="M34.622,74.623a.579.579,0,0,1-.5-.308.536.536,0,0,1,.077-.577c.18-.231,3.746-5.375,5.542-8.12.269-.4.475-.757.641-1.039-.616.231-1.552.629-2.9,1.232l-1.4.616a.736.736,0,0,1-.321.077.506.506,0,0,1-.526-.411.622.622,0,0,1,.423-.667c.359-.154.936-.4,1.385-.616l.128-.051a20.261,20.261,0,0,1,4.067-1.552.68.68,0,0,1,.59.282.69.69,0,0,1,.1.359,2.4,2.4,0,0,1,1.347-.6.937.937,0,0,1,.423.1.736.736,0,0,1,.372.462c.1.423-.128.924-.654,1.758-.731,1.18-.936,1.758-.744,2.014h0a1.055,1.055,0,0,0,.334.038,21.557,21.557,0,0,0,6.825-2.181c1.758-.86,2.809-1.385,2.963-1.475a.539.539,0,0,1,.269-.077.566.566,0,0,1,.539.385.481.481,0,0,1-.154.552,2.808,2.808,0,0,0-1.013,1.488c0,.423.192,1,1.86,1A23.139,23.139,0,0,0,62.383,65.1c1.45-4.195,7.21-10.814,11.366-10.814a1.129,1.129,0,0,1,1.283,1.244c0,3.451-5.888,7.659-11.738,10.314a3.26,3.26,0,0,0-.128.872,1.7,1.7,0,0,0,1.822,1.437c2.232,0,7.146-2.194,8.108-2.63a2.856,2.856,0,0,1,2.3-1.488,1.713,1.713,0,0,1,1.309.577c.334-.385.487-.436.6-.436a.857.857,0,0,1,.564.308.5.5,0,0,1,.128.359c0,.09-.051.167-.218.475a5.972,5.972,0,0,0-.783,1.924c0,.128,0,.3.6.3.962,0,3.387-.783,6.5-2.091a31.479,31.479,0,0,1,2.617-3.464c.359-.385.718-.77,1.1-1.155-.231,0-.475.026-.718.026h-.257a4.772,4.772,0,0,1-1.026-.077c-.462-.09-.59-.385-.564-.6a.662.662,0,0,1,.706-.526,1.025,1.025,0,0,1,.244.026,8.459,8.459,0,0,0,1,.064c.59,0,1.424-.064,1.8-.077h.154a27.85,27.85,0,0,1,2.668-2.335,1.113,1.113,0,0,1,.641-.282.448.448,0,0,1,.436.3.78.78,0,0,1-.411.834c-.231.167-.885.706-1.514,1.244a23.261,23.261,0,0,1,2.656-.231c1.642,0,1.988.667,1.988,1.219a.467.467,0,0,1-.513.462c-.308,0-.577-.167-.577-.462,0-.064-.064-.141-.9-.141a20.851,20.851,0,0,0-2.425.218h-.141c-.462.09-.924.141-1.373.192l-.231.026c-.667.693-1.3,1.347-1.911,2.014-2.219,2.425-3.387,4.58-2.989,5.478.167.372.641.564,1.4.564,1.719,0,6.5-2.258,8.043-3.015a2.632,2.632,0,0,1,2.758-2.181A1.262,1.262,0,0,1,98.11,64.8a2.653,2.653,0,0,1-2.527,2.373,1.939,1.939,0,0,0,.9.411,4.191,4.191,0,0,0,.834.077c2.386,0,5.747-1.565,7.081-2.232.077-.038.449-.192.449-.192A3.182,3.182,0,0,1,105,64.3c.154-.513.449-.616.654-.616.282,0,.6.192,1.065.654.654-.334,1.283-.667,1.95-1.026l.1-.051c.192-.552.924-.616,1-.616h0a.613.613,0,0,1,.629.487.561.561,0,0,1-.321.629s-.269.141-.334.18a.728.728,0,0,0,.077.269,3.545,3.545,0,0,1,.115,2.835,3.506,3.506,0,0,0,1.347.269,12.427,12.427,0,0,0,4.195-.885h.051a.191.191,0,0,1,.115.051l.5.667a.238.238,0,0,1,.026.128.109.109,0,0,1-.09.09,13.928,13.928,0,0,1-4.8,1.026,4.941,4.941,0,0,1-2.027-.462,2.86,2.86,0,0,1-1.86.629,2.768,2.768,0,0,1-2.4-2.194l-.115.051c-1.411.718-4.952,2.36-7.582,2.36a5.055,5.055,0,0,1-1.026-.1,2.678,2.678,0,0,1-2.142-1.745c-2.36,1.129-6.414,2.925-8.172,2.925A2.548,2.548,0,0,1,83.7,68.94a2.488,2.488,0,0,1-.141-2.117c-2.078.834-4.7,1.783-5.952,1.783-1.039,0-1.681-.526-1.681-1.385a1.267,1.267,0,0,1,.038-.372,4.6,4.6,0,0,1-2.45,1.309c-.526,0-.911-.5-.924-1.193-2.078.9-5.632,2.3-7.582,2.3A2.776,2.776,0,0,1,62.1,66.734a1.818,1.818,0,0,1,.026-.359A23.037,23.037,0,0,1,54.339,68.4c-1.847,0-2.951-.744-2.951-2.091a1.144,1.144,0,0,1,.038-.359c-.244.1-1.09.475-1.09.475-3,1.4-5.7,2.232-7.2,2.232a1.605,1.605,0,0,1-1.257-.411c-.8-.936.077-2.335.654-3.258.1-.167.192-.321.257-.436a18.447,18.447,0,0,0-3.836,4.285l-.064.09c-1.116,1.6-3.72,5.337-3.849,5.5a.481.481,0,0,1-.385.18Zm71.365-8.711c.205.885.808,1.552,1.4,1.552a1.88,1.88,0,0,0,.821-.167,12.163,12.163,0,0,1-1.732-1.629l-.5.231ZM75.442,65.13c-.513.077-1.783.808-1.783,1.8v.09a18.1,18.1,0,0,0,2.309-1.6.3.3,0,0,0-.077-.115.486.486,0,0,0-.372-.18v-.141l-.077.154Zm32.059.038a9.575,9.575,0,0,0,1.475,1.334,2.437,2.437,0,0,0-.154-1.873.688.688,0,0,1-.064-.141c-.423.244-.847.462-1.257.693Zm-10.725-.5a1.553,1.553,0,0,0-1.668,1.155.75.75,0,0,0,.026.244.979.979,0,0,0,.282.038c.654,0,1.616-.552,1.616-1.3C97.033,64.732,96.93,64.668,96.776,64.668Zm-23-9.288c-3.387,0-8.223,5.375-9.942,9.083,5.106-2.437,10.147-6.094,10.147-8.929V55.38h-.192Zm69.364,14.483a2.548,2.548,0,0,1-2.258-.911,2.429,2.429,0,0,1-.154-2.065,15.728,15.728,0,0,1-5.978,1.514,4.941,4.941,0,0,1-2.027-.462,2.86,2.86,0,0,1-1.86.629,2.768,2.768,0,0,1-2.4-2.194l-.115.051c-.808.372-1.552.693-2.245.949h-.051a.191.191,0,0,1-.115-.051l-.5-.667a.238.238,0,0,1-.026-.128.127.127,0,0,1,.09-.09c.731-.269,1.514-.6,2.335-.988,0,0,.257-.1.462-.192a3.029,3.029,0,0,1,.154-.924c.154-.513.449-.616.654-.616.282,0,.6.192,1.065.654.654-.334,1.283-.667,1.95-1.026l.1-.051c.192-.552.924-.616,1-.616h0a.613.613,0,0,1,.629.487.561.561,0,0,1-.321.629s-.269.154-.334.18a.728.728,0,0,0,.077.269,3.545,3.545,0,0,1,.115,2.835,3.506,3.506,0,0,0,1.347.269,15.913,15.913,0,0,0,6.517-1.873,32.917,32.917,0,0,1,2.643-3.464c.359-.385.718-.757,1.09-1.142h-.731a9.315,9.315,0,0,1-1.3-.077h0a.574.574,0,0,1-.564-.539c0-.257.205-.539.68-.539a2.21,2.21,0,0,1,.257.013,9.446,9.446,0,0,0,1,.051c.693,0,1.411-.064,1.77-.09h.231a26.38,26.38,0,0,1,2.258-2.04.61.61,0,0,1,.411-.18.536.536,0,0,1,.5.359.543.543,0,0,1-.167.6l-.128.1c-.269.218-.667.552-1.065.911a23.51,23.51,0,0,1,2.656-.231c1.462,0,1.988.654,1.988,1.219a.445.445,0,0,1-.475.449.555.555,0,0,1-.552-.372c-.038-.167-.051-.205-.834-.205h-.141a20.656,20.656,0,0,0-2.412.218l-.167.026c-.462.064-.924.128-1.385.18l-.218.026c-.667.693-1.3,1.347-1.911,2.014-2.219,2.425-3.387,4.58-2.989,5.478.167.372.641.564,1.4.564,2.117,0,9.057-3.451,9.3-3.656a8.906,8.906,0,0,0,.475-.757l.167-.282a.6.6,0,0,1,.5-.308.56.56,0,0,1,.475.269.533.533,0,0,1,0,.552c-.154.269-.372.6-.616.962l-.128.18c-.4.6-.641.988-.77,1.232,1.193-.436,2.912-2.283,3.451-2.874a.618.618,0,0,1,.449-.231.557.557,0,0,1,.5.334.509.509,0,0,1-.077.564c-.167.205-.321.385-.346.423-.372.449-1.321,1.616-1.321,2.053,0,.128,0,.3.6.3a24.04,24.04,0,0,0,6.337-2.027,2.823,2.823,0,0,1,2.271-1.462,1.548,1.548,0,0,1,1.026.385c.706-.962,1.552-2.219,2.6-3.81.641-.962,1.834-2.861,2.142-3.335a.75.75,0,0,1,.6-.4.49.49,0,0,1,.411.231.734.734,0,0,1-.077.731c-.321.513-1.5,2.386-2.142,3.374-.962,1.475-1.847,2.758-2.63,3.836a4.667,4.667,0,0,0-.949,2.155c0,.128,0,.3.6.3.962,0,3.387-.783,6.491-2.091a20.959,20.959,0,0,0,2.36-1.167c.218-.128.372-.205.5-.269a.7.7,0,0,1,.346-.09.512.512,0,0,1,.5.359.567.567,0,0,1-.218.616,2.55,2.55,0,0,0-.988,1.462c0,.821,1.6,1,2.938,1a19.144,19.144,0,0,0,6.966-1.642,3.787,3.787,0,0,1,.885-1.257.522.522,0,0,1,.308-.1.5.5,0,0,1,.436.244,1.9,1.9,0,0,1,1.681-1.373,1.292,1.292,0,0,1,1.309,1.347,3.549,3.549,0,0,1-1.193,2.078,6.322,6.322,0,0,0,1.9.244,14.154,14.154,0,0,0,5.273-1.462.927.927,0,0,1,.5-.167.476.476,0,0,1,.487.372.734.734,0,0,1-.526.77,17.892,17.892,0,0,1-5.747,1.565,5.969,5.969,0,0,1-2.835-.564c-.141.09-.269.18-.423.269a3.125,3.125,0,0,1-1.475.475,1.1,1.1,0,0,1-.9-.4,1.022,1.022,0,0,1-.205-.654,20.126,20.126,0,0,1-6.44,1.334c-2.707,0-4.028-.68-4.028-2.091a1.309,1.309,0,0,1,.038-.385c-1.668.68-6.7,2.643-7.928,2.643-.962,0-1.578-.449-1.668-1.193a4.166,4.166,0,0,1-.436.321,2.146,2.146,0,0,1-1.193.423,1.1,1.1,0,0,1-1.09-1.244v-.026a21.9,21.9,0,0,1-5.786,1.706c-.988,0-1.616-.475-1.681-1.244a3.689,3.689,0,0,1-2.027.783.779.779,0,0,1-.731-.334,1.088,1.088,0,0,1,.051-.949c-2.13,1.026-6.466,2.989-8.287,2.989Zm-13.675-3.951c.205.885.808,1.552,1.4,1.552a1.88,1.88,0,0,0,.821-.167,12.163,12.163,0,0,1-1.732-1.629l-.5.231Zm34.971-.783a2.133,2.133,0,0,0-1.539,1.155,2.942,2.942,0,0,0-.205.641.374.374,0,0,0,.026.18,2.479,2.479,0,0,0,.59-.257,7.571,7.571,0,0,0,1.488-1.552.442.442,0,0,0-.359-.154Zm21.9.218c-.192.3-.526.847-.731,1.206-.218.423-.154.552-.154.552a2.088,2.088,0,0,0,.962-.359.957.957,0,0,1,.154-.09,1.983,1.983,0,0,1-.244-.962,3.129,3.129,0,0,1,.013-.346Zm-55.368-.18a9.575,9.575,0,0,0,1.475,1.334,2.437,2.437,0,0,0-.154-1.873.688.688,0,0,1-.064-.141c-.423.244-.847.462-1.257.693Zm57.215-.834c-.372,0-.783.552-.783,1.36a.685.685,0,0,0,.038.282A2.735,2.735,0,0,0,188.4,64.6c0-.218-.077-.257-.218-.257Z" transform="translate(-34.069 -54.29)" fill="#717171"/>
        <path id="Path_15" data-name="Path 15" d="M50.34,62.085a.667.667,0,0,1-.487-.192.686.686,0,0,1-.192-.539.822.822,0,0,1,.231-.526.719.719,0,0,1,.513-.218.763.763,0,0,1,.513.205.7.7,0,0,1,.218.513.763.763,0,0,1-.205.513.837.837,0,0,1-.577.231Z" transform="translate(-29.66 -52.502)" fill="#717171"/>
        <path id="Path_16" data-name="Path 16" d="M145.86,62.205a.667.667,0,0,1-.487-.192.686.686,0,0,1-.192-.539.762.762,0,0,1,.231-.526.719.719,0,0,1,.513-.218.763.763,0,0,1,.513.205.719.719,0,0,1,.218.513.763.763,0,0,1-.205.513.837.837,0,0,1-.577.231Z" transform="translate(-2.641 -52.468)" fill="#717171"/>
      </g>
    </g>
  </g>
</svg>
